<?xml version="1.0" encoding="iso-8859-1"?>
<!-- Uploaded to: SVG Repo, www.svgrepo.com, Generator: SVG Repo Mixer Tools -->
<svg height="800px" width="800px" version="1.1" id="Layer_1" xmlns="http://www.w3.org/2000/svg" xmlns:xlink="http://www.w3.org/1999/xlink" 
	 viewBox="0 0 392.605 392.605" xml:space="preserve">
<path style="fill:#FFC10D;" d="M317.413,170.879c-6.659,1.681-12.735,5.107-17.713,9.956c-9.18,9.18-13.059,22.174-10.408,34.909
	c2.844,7.758-3.62,16.162-12.929,14.481c-12.994-3.168-26.893,0.711-36.267,10.15c-9.18,9.18-13.059,22.174-10.408,34.974
	c2.78,7.628-2.844,16.485-12.929,14.481c-14.222-3.168-26.117,0.711-36.267,10.15c-4.913,4.978-8.339,11.055-9.956,17.713
	l108.8,30.966l68.978-68.978L317.413,170.879z"/>
<path style="fill:#FFFFFF;" d="M355.295,303.598l-51.846,51.846l51.717,14.739c9.18,2.844,17.713-6.271,14.933-14.933
	L355.295,303.598z"/>
<path style="fill:#56ACE0;" d="M193.55,268.689L54.948,130.087L25.275,159.76c-4.202,4.008-4.719,12.154,0,17.067l127.03,127.03
	c3.038-7.176,7.37-13.77,12.994-19.329C173.186,276.576,182.883,271.21,193.55,268.689z"/>
<path style="fill:#FFFFFF;" d="M208.936,253.238c2.521-10.537,7.887-20.299,15.838-28.251c7.887-7.887,17.713-13.317,28.251-15.838
	L114.487,70.548l-44.218,44.154L208.936,253.238z"/>
<path style="fill:#56ACE0;" d="M129.873,55.097l138.537,138.537c2.521-10.537,7.887-20.299,15.838-28.251
	c5.56-5.624,12.154-9.956,19.329-12.994L176.613,25.424c-5.624-4.719-11.313-4.719-17.067,0L129.873,55.097z"/>
<path style="fill:#194F82;" d="M335.837,155.816c-0.517-1.875-1.552-3.297-2.78-4.719L191.998,10.038
	c-13.77-12.994-32.84-13.77-47.903,0L9.889,144.374c-12.671,12.412-13.446,34.844,0,47.903l140.994,140.994
	c1.164,1.164,2.715,2.069,4.719,2.78l193.552,55.143c26.182,7.758,49.519-17.907,41.891-41.891L335.837,155.816z M159.546,25.424
	c5.818-4.719,11.442-4.719,17.067,0l127.03,127.03c-7.176,3.038-13.77,7.37-19.329,12.994c-7.952,7.952-13.317,17.778-15.838,28.251
	L129.873,55.097L159.546,25.424z M114.487,70.548l138.667,138.667c-10.602,2.521-20.428,7.952-28.251,15.838
	c-7.952,7.952-13.317,17.778-15.838,28.251L70.334,114.701L114.487,70.548z M152.306,303.857l-127.03-127.03
	c-4.719-4.913-4.202-13.059,0-17.067l29.673-29.673L193.55,268.689c-10.602,2.521-20.428,7.952-28.251,15.838
	C159.611,290.087,155.215,296.681,152.306,303.857z M170.6,317.691c1.681-6.659,5.107-12.8,9.956-17.713
	c10.15-9.374,22.044-13.317,36.267-10.15c10.02,2.004,15.58-6.853,12.929-14.481c-2.651-12.735,1.164-25.729,10.408-34.974
	c9.438-9.438,23.337-13.188,36.267-10.149c9.18,1.681,15.709-6.723,12.929-14.481c-2.651-12.735,1.164-25.729,10.408-34.909
	c4.913-4.913,11.055-8.339,17.713-9.956l31.095,108.671l-69.107,69.042L170.6,317.691z M303.449,355.445l51.846-51.846
	l14.739,51.717c2.78,8.663-5.689,17.778-14.933,14.933L303.449,355.445z"/>
</svg>